<?xml version="1.0" encoding="utf-8"?>
<!-- Generator: Adobe Illustrator 19.0.0, SVG Export Plug-In . SVG Version: 6.00 Build 0)  -->
<svg version="1.1" id="Livello_1" xmlns="http://www.w3.org/2000/svg" xmlns:xlink="http://www.w3.org/1999/xlink" x="0px" y="0px"
	 viewBox="-487.8 362.3 271.7 67" style="enable-background:new -487.8 362.3 271.7 67;" xml:space="preserve">
<style type="text/css">
	.st0{fill:url(#XMLID_2_);}
	.st1{fill:url(#XMLID_3_);}
	.st2{fill:url(#XMLID_4_);}
	.st3{fill:url(#XMLID_5_);}
	.st4{fill:url(#XMLID_6_);}
	.st5{fill:url(#XMLID_7_);}
	.st6{fill:url(#SVGID_1_);}
	.st7{fill:url(#XMLID_8_);}
	.st8{fill:url(#XMLID_9_);}
	.st9{fill:url(#XMLID_10_);}
	.st10{fill:url(#XMLID_11_);}
	.st11{fill:url(#XMLID_12_);}
	.st12{fill:url(#XMLID_13_);}
	.st13{fill:url(#XMLID_14_);}
	.st14{fill:url(#XMLID_15_);}
	.st15{fill:url(#XMLID_16_);}
	.st16{fill:url(#XMLID_17_);}
</style>
<title>logo-light</title>
<g id="XMLID_180_">
	
		<linearGradient id="XMLID_2_" gradientUnits="userSpaceOnUse" x1="-433.1227" y1="-15971.1943" x2="-420.7827" y2="-15958.8545" gradientTransform="matrix(1 0 0 -1 0 -15591.3604)">
		<stop  offset="0" style="stop-color:#FEC400"/>
		<stop  offset="0.5051" style="stop-color:#FEA500"/>
		<stop  offset="1" style="stop-color:#FE9900"/>
	</linearGradient>
	<path id="XMLID_186_" class="st0" d="M-432.7,363.8l2.6,13.8l0.1,3.8c0.1,2.1,1.8,3.7,3.9,3.7h1.3c2.2,0,4.1-1.8,4.2-4l0.2-3.6
		l-4.1-13.8H-432.7z"/>
	
		<linearGradient id="XMLID_3_" gradientUnits="userSpaceOnUse" x1="-445.5661" y1="-15971.6455" x2="-432.5367" y2="-15958.6162" gradientTransform="matrix(1 0 0 -1 0 -15591.3604)">
		<stop  offset="0" style="stop-color:#FEC400"/>
		<stop  offset="0.5051" style="stop-color:#FEA500"/>
		<stop  offset="1" style="stop-color:#FE9900"/>
	</linearGradient>
	<path id="XMLID_185_" class="st1" d="M-435.8,364l2.7,13.8l-0.3,3.3c-0.2,2.5-2.3,4.4-4.8,4.4h-0.4c-2.5,0-4.5-2.1-4.4-4.6l0.1-3.1
		l-1-13.8H-435.8z"/>
	
		<linearGradient id="XMLID_4_" gradientUnits="userSpaceOnUse" x1="-458.1056" y1="-15971.999" x2="-444.109" y2="-15958.002" gradientTransform="matrix(1 0 0 -1 0 -15591.3604)">
		<stop  offset="0" style="stop-color:#FEC400"/>
		<stop  offset="0.5051" style="stop-color:#FEA500"/>
		<stop  offset="1" style="stop-color:#FE9900"/>
	</linearGradient>
	<path id="XMLID_184_" class="st2" d="M-446.7,364l0.9,13.8l-0.1,3c-0.1,2.5-2.2,4.5-4.6,4.5h-1c-2.4,0-4.4-1.9-4.6-4.3l-0.2-3.2
		l0.9-13.8H-446.7z"/>
	
		<linearGradient id="XMLID_5_" gradientUnits="userSpaceOnUse" x1="-470.4135" y1="-15972.4736" x2="-455.808" y2="-15957.8682" gradientTransform="matrix(1 0 0 -1 0 -15591.3604)">
		<stop  offset="0" style="stop-color:#FEC400"/>
		<stop  offset="0.5051" style="stop-color:#FEA500"/>
		<stop  offset="1" style="stop-color:#FE9900"/>
	</linearGradient>
	<path id="XMLID_183_" class="st3" d="M-466.4,364l-2.7,13.8l0.2,3.1c0.1,2.5,2.2,4.5,4.8,4.5h0.8c2.2,0,4-1.8,4-4v-3.6l1-13.8
		H-466.4z"/>
	
		<linearGradient id="XMLID_6_" gradientUnits="userSpaceOnUse" x1="-482.7426" y1="-15972.6924" x2="-467.4428" y2="-15957.3926" gradientTransform="matrix(1 0 0 -1 0 -15591.3604)">
		<stop  offset="0" style="stop-color:#FEC400"/>
		<stop  offset="0.5051" style="stop-color:#FEA500"/>
		<stop  offset="1" style="stop-color:#FE9900"/>
	</linearGradient>
	<path id="XMLID_182_" class="st4" d="M-469.5,364l-2.7,13.8l-0.1,3.9c0,2.1-1.8,3.7-3.8,3.7l-1.2,0c-2.4,0-4.5-2.7-4.7-5.1
		l-0.1-2.4l4.2-13.8H-469.5z"/>
</g>
<g id="XMLID_53_">
	
		<linearGradient id="XMLID_7_" gradientUnits="userSpaceOnUse" x1="-459.5988" y1="-16014.6318" x2="-446.766" y2="-16001.7988" gradientTransform="matrix(1 0 0 -1 0 -15591.3604)">
		<stop  offset="0" style="stop-color:#129D37"/>
		<stop  offset="0.5025" style="stop-color:#007F37"/>
		<stop  offset="1" style="stop-color:#006837"/>
	</linearGradient>
	<path id="XMLID_66_" class="st5" d="M-458.5,420.7c0,1.1-0.3,3.4,1.3,4.9s5.8,1.2,5.8,1.2s0,0-0.1,0.1c1.8-0.2,4.4-0.9,5.1-2.6
		c1-2.4,1-3.2-1.1-8.7c-1.2-3.3-4.3-8.5-6.4-12.3c-0.3,1.3-0.6,2.7-0.9,4.2c0,0-2.1,7.1-2.5,8C-457.4,415.4-458.5,419.6-458.5,420.7
		z"/>
	<linearGradient id="SVGID_1_" gradientUnits="userSpaceOnUse" x1="-474.4811" y1="388.0181" x2="-428.2496" y2="434.2496">
		<stop  offset="0" style="stop-color:#129D37"/>
		<stop  offset="0.5025" style="stop-color:#007F37"/>
		<stop  offset="1" style="stop-color:#006837"/>
	</linearGradient>
	<path class="st6" d="M-427.5,424l-0.3-35.7c-2.2,0.3-4.3-3-4.3-3s-2.6,2.5-6.4,3c-3.8,0.4-6.3-3-6.3-3s-2.8,3-6.4,3s-6.7-3-6.7-3
		s-0.4,2.8-5.3,2.9s-7.3-3-7.3-3c-1.6,3.3-4.3,2.9-4.3,2.9l0,35.7l-7.3,0v3.1h12.6c-1-1.9,0.4-4.3,0.4-4.3s2.7-4.4,4.1-5.9
		c1.5-1.5,6.4-6.6,5-8.3c-1-1.3-5.7,0.1-7.9,0.9c-0.3,0.1-0.5-0.3-0.3-0.5c1.9-1.9,6.7-6.5,12.2-10.9c0.9-1,4.3-3.2,5.9-4.3
		c0,0,0,0,0,0c0,0,0.1,0,0.1-0.1c0.1-0.1,0.3,0.1,0.2,0.2c0,0,0,0-0.1,0.1c0,0,0,0,0,0c-0.1,0.1-0.2,0.2-0.3,0.3
		c-0.6,0.9-1.4,2.2-2.3,4.2c-0.3,0.8-0.4,1.6-0.3,2.3c0.3,3.3,2.1,5,5.1,5.6s4.5-2.5,4.5-2.5l1.8-3.2c0.1-0.2,0.4-0.1,0.4,0.1
		c0.1,1.2-0.4,4.1-1.8,6.6c-2,3.7,2.1,7.7,2.1,7.7s4.4,4.2,5.4,6.9c0.9,2.3,0.7,3.4-1.2,4.9h15.3v-3H-427.5z M-463.1,402.4
		c-1.8,0-3.3-1.3-3.3-2.9c0-1.6,1.5-2.9,3.3-2.9s3.3,1.3,3.3,2.9C-459.7,401.1-461.2,402.4-463.1,402.4z M-447.2,405.3
		c-1.8,0-3.3-1.3-3.3-2.9c0-1.6,1.5-2.9,3.3-2.9c1.8,0,3.3,1.3,3.3,2.9C-443.9,404-445.4,405.3-447.2,405.3z"/>
</g>
<g id="XMLID_419_">
	<g id="XMLID_435_">
		
			<linearGradient id="XMLID_8_" gradientUnits="userSpaceOnUse" x1="-361.8617" y1="-16017.2559" x2="-361.8617" y2="-15988.5459" gradientTransform="matrix(1 0 0 -1 0 -15591.3604)">
			<stop  offset="0" style="stop-color:#FEC400"/>
			<stop  offset="0.5051" style="stop-color:#FEA500"/>
			<stop  offset="1" style="stop-color:#FE9900"/>
		</linearGradient>
		<path id="XMLID_443_" class="st7" d="M-366.7,418.5l-2.3,7.4h-7.5l9.8-28.7h9.6l10,28.7h-7.8l-2.5-7.4H-366.7z M-358.5,413.7
			l-2-6.1c-0.6-1.7-1.1-3.8-1.6-5.5h-0.1c-0.5,1.7-1,3.9-1.5,5.5l-1.9,6.1H-358.5z"/>
		
			<linearGradient id="XMLID_9_" gradientUnits="userSpaceOnUse" x1="-333.0671" y1="-16017.6816" x2="-333.0671" y2="-15988.0781" gradientTransform="matrix(1 0 0 -1 0 -15591.3604)">
			<stop  offset="0" style="stop-color:#FEC400"/>
			<stop  offset="0.5051" style="stop-color:#FEA500"/>
			<stop  offset="1" style="stop-color:#FE9900"/>
		</linearGradient>
		<path id="XMLID_441_" class="st8" d="M-342.6,419.2c2,0.9,5,1.8,8.1,1.8c3.3,0,5.1-1.2,5.1-3.1c0-1.8-1.5-2.8-5.4-4
			c-5.3-1.7-8.8-4.3-8.8-8.5c0-4.9,4.6-8.6,12.2-8.6c3.6,0,6.3,0.7,8.2,1.4l-1.6,5.2c-1.3-0.6-3.6-1.4-6.7-1.4
			c-3.2,0-4.7,1.3-4.7,2.8c0,1.8,1.8,2.6,6,4c5.7,1.9,8.4,4.5,8.4,8.6c0,4.8-4.2,8.9-13,8.9c-3.7,0-7.3-0.9-9.1-1.7L-342.6,419.2z"
			/>
		
			<linearGradient id="XMLID_10_" gradientUnits="userSpaceOnUse" x1="-303.1024" y1="-16017.7246" x2="-303.1024" y2="-15988.0781" gradientTransform="matrix(1 0 0 -1 0 -15591.3604)">
			<stop  offset="0" style="stop-color:#FEC400"/>
			<stop  offset="0.5051" style="stop-color:#FEA500"/>
			<stop  offset="1" style="stop-color:#FE9900"/>
		</linearGradient>
		<path id="XMLID_438_" class="st9" d="M-287.6,411.2c0,9.4-6.4,15.1-15.8,15.1c-9.6,0-15.1-6.4-15.1-14.6c0-8.6,6.2-15,15.7-15
			C-293,396.7-287.6,403.3-287.6,411.2z M-310.9,411.6c0,5.6,3,9.6,7.8,9.6c4.9,0,7.7-4.2,7.7-9.8c0-5.2-2.8-9.6-7.8-9.6
			C-308,401.9-310.9,406-310.9,411.6z"/>
		
			<linearGradient id="XMLID_11_" gradientUnits="userSpaceOnUse" x1="-273.3283" y1="-16017.2559" x2="-273.3283" y2="-15988.5459" gradientTransform="matrix(1 0 0 -1 0 -15591.3604)">
			<stop  offset="0" style="stop-color:#FEC400"/>
			<stop  offset="0.5051" style="stop-color:#FEA500"/>
			<stop  offset="1" style="stop-color:#FE9900"/>
		</linearGradient>
		<path id="XMLID_436_" class="st10" d="M-277.2,425.9v-11.8l-10.2-17h8.3l3.3,6.9c1,2.1,1.7,3.6,2.5,5.5h0.1
			c0.7-1.8,1.5-3.5,2.4-5.5l3.2-6.9h8.2l-10.6,16.7v12H-277.2z"/>
	</g>
	<g id="XMLID_420_">
		
			<linearGradient id="XMLID_12_" gradientUnits="userSpaceOnUse" x1="-395.5744" y1="-15985.6426" x2="-395.5744" y2="-15956.9336" gradientTransform="matrix(1 0 0 -1 0 -15591.3604)">
			<stop  offset="0" style="stop-color:#129D37"/>
			<stop  offset="0.5025" style="stop-color:#007F37"/>
			<stop  offset="1" style="stop-color:#006837"/>
		</linearGradient>
		<path id="XMLID_433_" class="st11" d="M-408.5,394.3l-7.6-28.7h7.8l2.4,11.8c0.7,3.4,1.4,7.1,1.9,10h0.1c0.5-3.1,1.3-6.6,2.1-10.1
			l2.7-11.8h7.7l2.6,12.1c0.7,3.4,1.2,6.4,1.7,9.6h0.1c0.5-3.2,1.2-6.6,1.9-10l2.6-11.8h7.4l-8.3,28.7h-7.9l-2.7-12.4
			c-0.6-2.9-1.1-5.6-1.5-8.9h-0.1c-0.6,3.2-1.1,6-1.9,8.9l-3.1,12.4H-408.5z"/>
		
			<linearGradient id="XMLID_13_" gradientUnits="userSpaceOnUse" x1="-361.5028" y1="-15985.6426" x2="-361.5028" y2="-15956.9336" gradientTransform="matrix(1 0 0 -1 0 -15591.3604)">
			<stop  offset="0" style="stop-color:#129D37"/>
			<stop  offset="0.5025" style="stop-color:#007F37"/>
			<stop  offset="1" style="stop-color:#006837"/>
		</linearGradient>
		<path id="XMLID_430_" class="st12" d="M-366.4,386.9l-2.3,7.4h-7.5l9.8-28.7h9.6l10,28.7h-7.8l-2.5-7.4H-366.4z M-358.2,382.1
			l-2-6.1c-0.6-1.7-1.1-3.8-1.6-5.5h-0.1c-0.5,1.7-1,3.9-1.5,5.5l-1.9,6.1H-358.2z"/>
		
			<linearGradient id="XMLID_14_" gradientUnits="userSpaceOnUse" x1="-330.3683" y1="-15985.6426" x2="-330.3683" y2="-15956.7207" gradientTransform="matrix(1 0 0 -1 0 -15591.3604)">
			<stop  offset="0" style="stop-color:#129D37"/>
			<stop  offset="0.5025" style="stop-color:#007F37"/>
			<stop  offset="1" style="stop-color:#006837"/>
		</linearGradient>
		<path id="XMLID_427_" class="st13" d="M-342.5,366c2.3-0.3,5.8-0.6,9.7-0.6c4.8,0,8.1,0.6,10.4,2.3c1.9,1.4,3,3.4,3,6
			c0,3.7-2.9,6.2-5.7,7.1v0.1c2.2,0.8,3.5,2.7,4.3,5.4c1,3.2,2,7,2.6,8.1h-7.4c-0.5-0.8-1.3-3.2-2.2-6.7c-0.9-3.6-2.2-4.6-5.2-4.6
			h-2.2v11.3h-7.2V366z M-335.3,378.3h2.9c3.6,0,5.8-1.6,5.8-4.1c0-2.6-2-4-5.3-4c-1.8,0-2.8,0.1-3.3,0.2V378.3z"/>
		
			<linearGradient id="XMLID_15_" gradientUnits="userSpaceOnUse" x1="-301.3348" y1="-15986.1113" x2="-301.3348" y2="-15956.9336" gradientTransform="matrix(1 0 0 -1 0 -15591.3604)">
			<stop  offset="0" style="stop-color:#129D37"/>
			<stop  offset="0.5025" style="stop-color:#007F37"/>
			<stop  offset="1" style="stop-color:#006837"/>
		</linearGradient>
		<path id="XMLID_425_" class="st14" d="M-307.2,365.6v16.5c0,4.9,2.1,7.5,5.8,7.5c3.8,0,5.9-2.4,5.9-7.5v-16.5h7.3v16.1
			c0,8.9-5,13.1-13.4,13.1c-8.1,0-12.9-4-12.9-13.2v-16H-307.2z"/>
		
			<linearGradient id="XMLID_16_" gradientUnits="userSpaceOnUse" x1="-268.5527" y1="-15985.6426" x2="-268.5527" y2="-15956.9336" gradientTransform="matrix(1 0 0 -1 0 -15591.3604)">
			<stop  offset="0" style="stop-color:#129D37"/>
			<stop  offset="0.5025" style="stop-color:#007F37"/>
			<stop  offset="1" style="stop-color:#006837"/>
		</linearGradient>
		<path id="XMLID_423_" class="st15" d="M-281.9,394.3v-28.7h8.5l6.7,10.5c1.9,3,3.8,6.6,5.3,9.8h0.1c-0.5-3.8-0.6-7.7-0.6-12v-8.4
			h6.7v28.7h-7.6l-6.9-11.1c-1.9-3.1-4-6.8-5.6-10.1l-0.1,0c0.2,3.8,0.3,7.8,0.3,12.5v8.6H-281.9z"/>
		
			<linearGradient id="XMLID_17_" gradientUnits="userSpaceOnUse" x1="-236.2249" y1="-15985.9414" x2="-236.2249" y2="-15956.6357" gradientTransform="matrix(1 0 0 -1 0 -15591.3604)">
			<stop  offset="0" style="stop-color:#129D37"/>
			<stop  offset="0.5025" style="stop-color:#007F37"/>
			<stop  offset="1" style="stop-color:#006837"/>
		</linearGradient>
		<path id="XMLID_421_" class="st16" d="M-222,393c-2.2,0.7-6.5,1.6-10.7,1.6c-5.9,0-10.1-1.3-13.1-3.9c-3-2.5-4.6-6.2-4.5-10.4
			c0-9.5,7.8-15,18.4-15c4.2,0,7.4,0.7,8.9,1.4l-1.5,5.2c-1.8-0.7-4-1.2-7.5-1.2c-6.1,0-10.6,3.1-10.6,9.3c0,5.9,4.2,9.4,10.1,9.4
			c1.7,0,3-0.2,3.6-0.4v-6h-5v-5.1h12V393z"/>
	</g>
</g>
</svg>
